<svg width="1440" height="820" viewBox="0 0 1440 820" fill="none" xmlns="http://www.w3.org/2000/svg">
<path d="M272.004 505.353C265.111 505.541 258.284 503.966 252.17 500.777C246.055 497.589 240.856 492.893 237.064 487.133C225.129 498.296 209.56 504.767 193.229 505.353C163.97 505.353 148.108 484.722 153.467 455.141C157.54 432.902 175.76 410.61 180.85 392.711C170.99 386.709 156.361 382.529 149.501 394.801L145 392.068C148.59 378.617 157.272 369.668 169.811 369.668C182.351 369.668 191.622 377.117 203.572 370.258H213.11C208.02 397.052 195.158 418.487 188.299 455.999C184.119 478.988 191.89 489.438 205.019 489.438C214.755 488.211 223.69 483.419 230.098 475.987C224.857 462.885 222.218 448.888 222.328 434.778C222.328 402.196 237.279 367.846 262.358 367.846C275.219 367.846 284.758 376.795 284.758 398.016C284.758 419.237 271.897 452.087 255.499 472.718C256.384 477.63 258.957 482.08 262.772 485.298C266.588 488.517 271.407 490.303 276.398 490.349C300.298 490.349 317.018 454.498 317.018 421.327C317.018 388.156 302.656 389.657 303.889 378.457C304.108 375.641 305.43 373.025 307.568 371.179C309.705 369.332 312.485 368.404 315.303 368.596C322.752 368.596 332.558 378.028 332.558 416.29C332.558 465.055 306.622 505.353 272.004 505.353ZM266.591 384.673C259.143 384.673 251.962 412.164 251.051 440.565C250.703 446.638 250.81 452.728 251.372 458.785C262.627 440.16 269.482 419.21 271.414 397.534C271.361 387.888 269.592 384.673 266.591 384.673ZM381.645 504.121C378.52 504.444 375.361 504.077 372.394 503.045C369.426 502.013 366.722 500.341 364.472 498.147C362.223 495.954 360.483 493.293 359.376 490.352C358.269 487.412 357.822 484.264 358.066 481.131C358.066 468.002 375.107 402.571 375.107 391.8C375.107 386.709 373.928 383.708 369.427 383.708C364.393 384.535 359.714 386.828 355.976 390.3V381.029C363.736 373.861 373.82 369.732 384.378 369.4C387.522 369.118 390.69 369.525 393.661 370.592C396.631 371.66 399.333 373.363 401.578 375.583C403.823 377.802 405.557 380.484 406.659 383.443C407.76 386.401 408.203 389.564 407.957 392.711C407.957 405.84 390.916 471.003 390.916 481.721C390.916 486.812 392.095 489.813 396.596 489.813C401.562 488.972 406.209 486.806 410.047 483.543V492.492C402.317 499.706 392.214 503.842 381.645 504.121ZM402.544 315.008C404.88 314.933 407.204 315.367 409.354 316.282C411.505 317.196 413.43 318.568 414.996 320.302C416.562 322.037 417.731 324.092 418.422 326.324C419.113 328.556 419.309 330.913 418.996 333.228C418.427 338.168 416.09 342.734 412.415 346.083C408.741 349.433 403.978 351.338 399.007 351.448C396.672 351.524 394.348 351.089 392.197 350.175C390.047 349.261 388.122 347.889 386.556 346.154C384.99 344.42 383.82 342.365 383.13 340.133C382.439 337.9 382.243 335.544 382.556 333.228C383.124 328.289 385.462 323.723 389.136 320.373C392.811 317.024 397.574 315.118 402.544 315.008ZM468.886 476.041C467.386 484.132 468.297 489.759 473.977 489.759C478.962 488.977 483.624 486.804 487.428 483.489L487.964 492.492C480.204 499.66 470.12 503.789 459.562 504.121C441.021 504.121 433.84 490.67 436.573 473.951L454.793 370.258C460.848 335.64 458.758 331.085 440.217 331.085L441.396 322.725L497.288 315.33L468.886 476.041ZM626.06 475.773C624.56 483.864 625.149 489.813 631.151 489.813C636.144 488.861 640.79 486.585 644.602 483.221V492.492C636.894 499.74 626.778 503.882 616.2 504.121C610.854 504.511 605.555 502.885 601.35 499.561C597.144 496.238 594.335 491.46 593.479 486.169C588.999 492.102 583.223 496.934 576.593 500.296C569.962 503.658 562.65 505.461 555.217 505.568C519.688 505.568 504.737 474.219 511.596 436.546C518.455 398.874 550.447 368.114 586.619 368.114C595.182 367.936 603.648 369.947 611.216 373.955L612.127 369.186C619.201 332.317 615.932 331.085 597.39 331.085L598.301 322.725L654.462 315.33L626.06 475.773ZM587.53 381.618C566.899 381.618 553.18 406.108 547.768 436.278C542.088 467.949 545.678 489.866 565.077 489.866C578.206 489.866 593.157 473.79 597.658 449.247L608.698 387.084C602.332 383.222 594.97 381.321 587.53 381.618ZM720.482 505.621C678.951 505.621 667.591 475.719 672.682 447.049L686.239 370.258C692.509 335.586 690.419 330.817 671.878 330.817L673.057 322.457L729.11 315.33L717.749 380.439C726.471 372.856 737.546 368.52 749.098 368.168C785.27 368.168 802.258 398.927 795.72 436.6C789.182 474.272 755.904 505.621 720.482 505.621ZM739.881 382.369C733.843 382.494 728 384.525 723.187 388.174C718.374 391.822 714.839 396.899 713.087 402.678L704.727 450.908C699.636 479.577 709.818 491.26 722.679 491.26C741.489 491.26 753.171 470.36 759.441 436.01C765.014 405.251 759.923 382.529 739.828 382.529L739.881 382.369ZM852.362 453.962C852.362 476.952 863.402 489.223 884.515 489.223C895.233 489.223 910.827 481.774 920.687 471.914L924.867 481.453C917.786 488.959 909.272 494.97 899.829 499.13C890.385 503.291 880.204 505.516 869.886 505.675C838.537 505.675 817.316 482.364 817.316 450.693C817.316 403.804 856.167 368.221 893.518 368.221C916.239 368.221 929.047 380.761 929.047 395.391C928.779 418.112 907.237 443.62 852.362 453.962ZM890.892 381.94C873.851 381.94 857.453 406.751 852.952 442.28C887.302 433.92 901.931 410.61 902.253 395.658C902.199 387.299 898.287 381.94 890.839 381.94H890.892ZM1050.96 504.121C1045.61 504.511 1040.32 502.885 1036.11 499.561C1031.9 496.238 1029.1 491.46 1028.24 486.169C1023.93 492.098 1018.29 496.94 1011.78 500.308C1005.27 503.675 998.058 505.476 990.727 505.568C955.788 505.568 940.836 474.219 947.857 436.546C954.877 398.874 986.333 368.168 1022.61 368.168C1030.31 368.127 1037.93 369.658 1045.01 372.669H1079.09L1060.82 475.773C1059.32 483.864 1059.91 489.813 1065.91 489.813C1070.9 488.861 1075.55 486.585 1079.36 483.221V492.492C1071.65 499.74 1061.54 503.882 1050.96 504.121ZM1023.47 381.618C1003.43 381.618 989.387 406.108 984.028 436.278C978.348 467.949 982.26 489.866 1000.1 489.866C1013.82 489.866 1028.51 473.147 1032.69 449.247L1043.73 387.084C1037.72 383.222 1030.66 381.312 1023.52 381.618H1023.47ZM1183.64 403.429C1175.55 403.429 1173.46 397.159 1171.1 390.568C1170.31 387.246 1168.38 384.305 1165.65 382.251C1162.92 380.197 1159.57 379.158 1156.15 379.314C1151.72 379.081 1147.36 380.513 1143.93 383.329C1140.5 386.145 1138.25 390.141 1137.61 394.533C1136.7 402.625 1142.7 409.484 1154.06 419.344L1169.28 431.884C1174.95 436.182 1179.35 441.947 1181.98 448.558C1184.62 455.169 1185.39 462.374 1184.23 469.396C1180.37 491.795 1161.83 505.568 1137.02 505.568C1107.12 505.568 1088.04 487.937 1090.13 475.987C1090.62 472.843 1092.2 469.973 1094.61 467.892C1097.01 465.811 1100.08 464.653 1103.26 464.626C1111.03 464.626 1113.98 470.575 1116.39 478.345C1117.94 482.807 1120.91 486.633 1124.86 489.23C1128.8 491.827 1133.49 493.049 1138.2 492.706C1142.86 492.925 1147.43 491.399 1151.01 488.425C1154.6 485.451 1156.95 481.245 1157.6 476.63C1158.78 465.912 1152.24 459.321 1139.97 448.228L1125.02 435.099C1119.75 431.066 1115.64 425.707 1113.12 419.569C1110.6 413.431 1109.75 406.734 1110.66 400.16C1113.34 385.798 1126.73 368.007 1157.55 368.007C1181.45 368.007 1196.4 381.458 1195.06 392.229C1194.91 395.189 1193.66 397.984 1191.54 400.06C1189.42 402.135 1186.61 403.338 1183.64 403.429ZM1293.02 384.673H1264.03L1249.99 464.09C1246.99 480.542 1249.4 487.991 1258.35 487.991C1263.11 487.991 1270.62 485.311 1281.34 474.272L1281.92 485.901C1277.07 491.651 1271.04 496.285 1264.23 499.485C1257.42 502.685 1250.01 504.376 1242.48 504.442C1222.17 504.442 1211.99 490.081 1216.81 463.501L1230.86 384.673H1208.19L1209.96 372.401H1232.84L1238.84 336.872H1272.28L1266.01 372.401H1295L1293.02 384.673Z" fill="#8844EE"/>
<mask id="path-2-inside-1" fill="white">
<rect width="1440" height="820" rx="10"/>
</mask>
<rect width="1440" height="820" rx="10" stroke="#8844EE" stroke-width="120" mask="url(#path-2-inside-1)"/>
</svg>
